<svg width="118" height="130" viewBox="0 0 118 130" fill="none" xmlns="http://www.w3.org/2000/svg">
<g clip-path="url(#clip0_313_177)">
<path d="M10.497 113.56C4.74776 113.56 0.00231934 108.433 0.00231934 101.998V11.8149C0.00231934 5.48096 4.6565 0.25293 10.497 0.25293H87.5191C93.2684 0.25293 98.0139 5.38042 98.0139 11.8149V54.4434L97.6488 54.3429C96.0974 53.8402 94.6373 53.6391 92.9947 53.6391H92.9034L92.8121 53.3375H92.5384V11.8149C92.5384 8.89928 90.1656 6.28527 87.5191 6.28527H10.497C7.85054 6.28527 5.47783 8.89928 5.47783 11.8149V101.998C5.47783 104.914 7.85054 107.528 10.497 107.528H50.9245L51.0158 107.629C52.0196 109.137 51.4721 110.243 51.107 111.047C50.742 111.751 50.5595 112.253 51.1983 112.957L51.7458 113.56H10.497Z" fill="black"/>
<path d="M16.4288 22.3715C15.425 22.3715 14.6036 20.9639 14.6036 19.2548C14.6036 17.5456 15.425 16.1381 16.4288 16.1381H47.4567C48.4605 16.1381 49.2818 17.5456 49.2818 19.2548C49.2818 20.9639 48.4605 22.3715 47.4567 22.3715H16.4288Z" fill="black"/>
<path d="M47.4567 16.4397H16.4288C15.6075 16.4397 14.8774 17.6462 14.8774 19.2548C14.8774 20.8634 15.6075 22.0699 16.4288 22.0699H47.4567C48.278 22.0699 49.0081 20.8634 49.0081 19.2548C49.0081 17.6462 48.3693 16.4397 47.4567 16.4397ZM16.0638 38.4577C15.2424 38.4577 14.6036 37.1507 14.6036 35.341C14.6036 33.5313 15.2424 32.2243 16.0638 32.2243H38.3308C39.1522 32.2243 39.791 33.5313 39.791 35.341C39.791 37.1507 39.1522 38.4577 38.3308 38.4577H16.0638Z" fill="black"/>
<path d="M38.3308 32.526H16.0638C15.425 32.526 14.9687 33.7324 14.9687 35.3411C14.9687 36.9497 15.425 38.1562 16.0638 38.1562H38.3308C38.9697 38.1562 39.4259 36.9497 39.4259 35.3411C39.4259 33.7324 38.8784 32.526 38.3308 32.526ZM84.3251 129.747C81.1311 129.747 77.6632 129.546 73.1916 129.144C66.7122 128.541 60.7804 125.223 55.0311 119.09L29.1137 91.1402C23.0907 84.7057 22.8169 76.2604 28.2012 69.8259C30.4826 67.2119 34.0417 65.6033 37.8746 65.6033C41.7074 65.6033 45.1752 67.2119 47.3654 70.027C47.4567 70.1275 47.6392 70.3286 48.0042 70.5297C48.0955 70.6302 48.278 70.7308 48.3693 70.8313V57.3591V50.7235C48.3693 45.596 48.3693 40.368 48.4605 35.2405C48.5518 27.5996 53.936 21.7683 61.0542 21.7683H61.1455C67.9898 21.7683 73.1916 27.298 73.5566 34.8384C73.6479 36.5475 73.6479 38.3572 73.5566 40.1669V42.4793H74.9255C79.6709 42.4793 83.3213 44.289 85.9678 48.1095C86.059 48.3106 86.6066 48.5117 87.3366 48.5117C87.6104 48.5117 87.8842 48.5117 88.0667 48.4111C88.888 48.3106 89.7093 48.2101 90.4394 48.2101C94.0897 48.2101 97.2838 49.8187 100.022 53.1365C100.478 53.6392 101.482 54.0413 102.394 54.0413H102.759C103.398 53.9408 104.128 53.8402 104.767 53.8402C111.611 53.8402 117.087 59.1688 117.178 66.106C117.452 78.8744 117.634 91.4418 116.357 103.909C114.805 118.989 107.505 127.033 93.2684 129.043C90.6219 129.546 87.6104 129.747 84.3251 129.747ZM37.4183 71.334C35.5018 71.334 33.6767 72.1383 32.3078 73.5459C30.6651 75.3556 29.7526 77.4669 29.7526 79.7793C29.7526 82.1922 30.7564 84.6051 32.5816 86.6159L36.0494 90.4364C43.6238 98.6806 51.4721 107.126 59.3203 115.471C63.1531 119.492 67.5335 122.106 72.3702 123.112C76.1118 123.916 79.8534 124.318 83.5038 124.318C86.7891 124.318 90.0744 124.016 93.2684 123.313C104.858 121 110.151 114.867 111.246 103.004C112.25 91.6429 112.159 79.9804 111.976 68.72V66.9103C111.885 62.7882 109.239 59.9731 105.497 59.9731C104.493 59.9731 103.581 60.1742 102.577 60.5763V76.2604C102.577 77.668 102.577 80.3825 100.022 80.3825H99.9303C99.109 80.3825 98.4702 80.1814 98.1051 79.6787C97.3751 78.8744 97.2838 77.3663 97.2838 76.1599V75.5566C97.2838 70.9319 97.3751 66.2065 97.2838 61.4812C97.1925 57.3591 94.546 54.4435 90.8957 54.4435C89.9831 54.4435 89.0705 54.6445 88.2492 54.9462V71.2335C88.2492 72.641 87.9754 73.7469 87.3366 74.4507C86.8803 74.9534 86.2415 75.255 85.4202 75.255H85.3289C82.865 75.1545 82.865 72.3394 82.865 71.334V64.6984V56.2532C82.865 54.3429 82.1349 52.3322 80.766 50.8241C79.4884 49.4165 77.7545 48.6122 76.0206 48.6122C75.2905 48.6122 74.4692 48.7127 73.7391 49.0144V56.2532C73.7391 59.6715 73.7391 63.2909 73.5566 66.8098C73.4653 67.7146 72.7353 68.4184 72.0052 69.1221C71.7314 69.4238 71.3664 69.7254 71.0926 70.027L70.8188 70.3286L70.6363 69.8259C70.4538 69.5243 70.18 69.2227 69.9063 69.0216C69.3587 68.3178 68.7199 67.6141 68.3549 66.8098C68.0811 66.2065 68.1724 65.5027 68.1724 64.8995V64.0952V55.3483C68.1724 48.9138 68.1724 42.2783 68.0811 35.7432C68.0811 30.9174 65.2521 27.7001 61.1455 27.5996C56.6738 27.5996 53.6623 31.1184 53.6623 36.2459V83.5998L52.4759 84.4041L52.3846 84.203C51.5633 83.1976 50.6507 82.1922 49.8294 81.1868C47.913 78.975 45.9053 76.562 43.8976 74.3502C42.0724 72.4399 39.791 71.334 37.4183 71.334Z" fill="black"/>
</g>
<defs>
<clipPath id="clip0_313_177">
<rect width="118" height="130" fill="white"/>
</clipPath>
</defs>
</svg>
