<svg width="185" height="142" viewBox="0 0 185 142" fill="none" xmlns="http://www.w3.org/2000/svg">
<g clip-path="url(#clip0_313_226)">
<path d="M169.744 86.5637H154.102V60.3279C154.102 53.871 147.259 48.6181 138.847 48.6181H107.756V34.2403C107.756 33.0125 106.46 32.0169 104.859 32.0169C103.259 32.0169 101.962 33.0123 101.962 34.2403V86.564H5.79317V12.7473H37.077V41.3548C37.077 43.0493 39.5669 44.1346 41.4642 43.2612L55.4227 36.8327L69.3811 43.2612C71.2799 44.1354 73.7684 43.0474 73.7684 41.3548V12.7473H101.962V24.7535C101.962 25.9813 103.259 26.977 104.859 26.977C106.459 26.977 107.756 25.9816 107.756 24.7535V10.5241C107.756 9.29632 106.46 8.30066 104.859 8.30066H2.89677C1.29681 8.30066 0 9.29605 0 10.5241V121.99C0 123.217 1.29681 124.213 2.89677 124.213H14.3819C17.8059 129.812 25.2182 133.7 33.7947 133.7C42.3711 133.7 49.7834 129.812 53.2074 124.213H131.793C135.217 129.812 142.629 133.7 151.206 133.7C159.782 133.7 167.194 129.812 170.618 124.213H182.104C183.704 124.213 185.001 123.218 185.001 121.99V98.2737C185 91.8169 178.156 86.5637 169.744 86.5637ZM42.8705 12.7473H67.9749V37.4279L56.9132 32.3333C56.0048 31.9151 54.8406 31.9151 53.9322 32.3333L42.8705 37.4279V12.7473ZM33.7943 129.253C25.169 129.253 18.1524 123.867 18.1524 117.247C18.1524 110.626 25.1694 105.24 33.7943 105.24C42.4192 105.24 49.4362 110.626 49.4362 117.247C49.4362 123.867 42.4196 129.253 33.7943 129.253ZM101.962 119.766H54.9782C55.1434 118.944 55.2297 118.103 55.2297 117.246C55.2297 108.174 45.6141 100.793 33.7943 100.793C21.9749 100.793 12.3589 108.174 12.3589 117.246C12.3589 118.103 12.4449 118.944 12.6104 119.766H5.79317V91.0104H101.962V119.766ZM107.756 53.0648H138.846C144.064 53.0648 148.309 56.323 148.309 60.3279V86.5637H107.756V53.0648ZM151.206 129.253C142.581 129.253 135.564 123.867 135.564 117.247C135.564 110.626 142.581 105.24 151.206 105.24C159.831 105.24 166.848 110.626 166.848 117.247C166.848 123.867 159.831 129.253 151.206 129.253ZM179.207 119.766H172.39C172.555 118.944 172.641 118.103 172.641 117.246C172.641 108.174 163.025 100.793 151.206 100.793C139.386 100.793 129.77 108.174 129.77 117.246C129.77 118.103 129.856 118.944 130.022 119.766H107.756V91.0104H169.744C174.962 91.0104 179.206 94.2686 179.206 98.2735V119.766H179.207Z" fill="black"/>
<path d="M151.206 107.908C144.497 107.908 139.04 112.097 139.04 117.246C139.04 122.395 144.498 126.584 151.206 126.584C157.914 126.584 163.372 122.395 163.372 117.246C163.372 112.097 157.914 107.908 151.206 107.908ZM151.206 122.138C147.692 122.138 144.833 119.943 144.833 117.246C144.833 114.549 147.692 112.355 151.206 112.355C154.72 112.355 157.578 114.549 157.578 117.246C157.578 119.943 154.72 122.138 151.206 122.138Z" fill="black"/>
<path d="M33.7943 107.908C27.0859 107.908 21.6284 112.097 21.6284 117.246C21.6284 122.395 27.0862 126.584 33.7943 126.584C40.5023 126.584 45.9602 122.395 45.9602 117.246C45.9602 112.097 40.5027 107.908 33.7943 107.908ZM33.7943 122.138C30.2804 122.138 27.4215 119.943 27.4215 117.246C27.4215 114.549 30.2804 112.355 33.7943 112.355C37.3082 112.355 40.167 114.549 40.167 117.246C40.167 119.943 37.3082 122.138 33.7943 122.138Z" fill="black"/>
<path d="M120.308 93.6783H114.128C112.528 93.6783 111.232 94.6737 111.232 95.9018C111.232 97.1299 112.528 98.1253 114.128 98.1253H120.308C121.908 98.1253 123.205 97.1299 123.205 95.9018C123.205 94.6737 121.908 93.6783 120.308 93.6783Z" fill="black"/>
<path d="M135.757 55.7328H114.128C112.528 55.7328 111.232 56.7282 111.232 57.9563V81.6722C111.232 82.9 112.528 83.8957 114.128 83.8957H141.936C143.536 83.8957 144.833 82.9003 144.833 81.6722V62.6994C144.833 58.8579 140.762 55.7328 135.757 55.7328ZM139.04 79.449H117.025V60.1797H135.757C137.567 60.1797 139.04 61.3102 139.04 62.6997V79.449Z" fill="black"/>
<path d="M15.2557 72.334C13.6561 72.334 12.3589 73.3294 12.3589 74.5574V81.6722C12.3589 82.9 13.6557 83.8956 15.2557 83.8956C16.8553 83.8956 18.1524 82.9002 18.1524 81.6722V74.5574C18.1524 73.3294 16.8556 72.334 15.2557 72.334Z" fill="black"/>
<path d="M24.5251 72.334C22.9255 72.334 21.6284 73.3294 21.6284 74.5574V81.6722C21.6284 82.9 22.9252 83.8956 24.5251 83.8956C26.1251 83.8956 27.4219 82.9002 27.4219 81.6722V74.5574C27.4215 73.3294 26.1247 72.334 24.5251 72.334Z" fill="black"/>
<path d="M83.2309 72.334C81.6313 72.334 80.3341 73.3294 80.3341 74.5574V81.6722C80.3341 82.9 81.6309 83.8956 83.2309 83.8956C84.8308 83.8956 86.1276 82.9002 86.1276 81.6722V74.5574C86.1273 73.3294 84.8305 72.334 83.2309 72.334Z" fill="black"/>
<path d="M92.5 72.334C90.9004 72.334 89.6033 73.3294 89.6033 74.5574V81.6722C89.6033 82.9 90.9001 83.8956 92.5 83.8956C94.1 83.8956 95.3968 82.9002 95.3968 81.6722V74.5574C95.3968 73.3294 94.1 72.334 92.5 72.334Z" fill="black"/>
<path d="M39.9737 72.334C38.3741 72.334 37.077 73.3294 37.077 74.5574V81.6722C37.077 82.9 38.3738 83.8956 39.9737 83.8956C41.5737 83.8956 42.8705 82.9002 42.8705 81.6722V74.5574C42.8705 73.3294 41.5737 72.334 39.9737 72.334Z" fill="black"/>
<path d="M49.2433 72.334C47.6437 72.334 46.3465 73.3294 46.3465 74.5574V81.6722C46.3465 82.9 47.6433 83.8956 49.2433 83.8956C50.8432 83.8956 52.14 82.9002 52.14 81.6722V74.5574C52.14 73.3294 50.8429 72.334 49.2433 72.334Z" fill="black"/>
<path d="M58.5124 72.334C56.9128 72.334 55.6156 73.3294 55.6156 74.5574V81.6722C55.6156 82.9 56.9124 83.8956 58.5124 83.8956C60.1123 83.8956 61.4091 82.9002 61.4091 81.6722V74.5574C61.4091 73.3294 60.1123 72.334 58.5124 72.334Z" fill="black"/>
<path d="M67.7819 72.334C66.1823 72.334 64.8851 73.3294 64.8851 74.5574V81.6722C64.8851 82.9 66.1819 83.8956 67.7819 83.8956C69.3819 83.8956 70.6787 82.9002 70.6787 81.6722V74.5574C70.6787 73.3294 69.3815 72.334 67.7819 72.334Z" fill="black"/>
<path d="M89.4103 48.618H21.4354C19.8358 48.618 18.5386 49.6134 18.5386 50.8415V60.328C18.5386 61.5559 19.8354 62.5515 21.4354 62.5515H89.4103C91.0099 62.5515 92.307 61.5561 92.307 60.328V50.8415C92.307 49.6134 91.0099 48.618 89.4103 48.618ZM86.5135 58.1043H24.3318V53.0647H86.5135V58.1043Z" fill="black"/>
</g>
<defs>
<clipPath id="clip0_313_226">
<rect width="185" height="142" fill="white"/>
</clipPath>
</defs>
</svg>
