<svg width="131" height="133" viewBox="0 0 131 133" fill="none" xmlns="http://www.w3.org/2000/svg">
<path d="M52.4982 41.2164C54.2853 41.2164 55.7341 39.9232 55.7341 38.328C55.7341 36.7328 54.2853 35.4396 52.4982 35.4396C50.7111 35.4396 49.2624 36.7328 49.2624 38.328C49.2624 39.9232 50.7111 41.2164 52.4982 41.2164Z" fill="black"/>
<path d="M70.5649 41.2164C72.352 41.2164 73.8007 39.9232 73.8007 38.328C73.8007 36.7328 72.352 35.4396 70.5649 35.4396C68.7778 35.4396 67.329 36.7328 67.329 38.328C67.329 39.9232 68.7778 41.2164 70.5649 41.2164Z" fill="black"/>
<path d="M58.6289 76.5485C58.633 76.4577 58.6347 76.3675 58.6347 76.2773C58.6347 72.2852 54.9962 69.0371 50.5237 69.0371C46.0513 69.0371 42.4125 72.2849 42.4125 76.2773C42.4125 80.111 45.7679 83.258 49.9947 83.5023C50.9778 85.3926 53.1159 86.6465 55.5118 86.6465C58.8692 86.6465 61.6006 84.2084 61.6006 81.2115C61.6006 79.2898 60.4412 77.5176 58.6289 76.5485ZM55.5118 84.2012C53.9933 84.2012 52.6633 83.2841 52.2774 81.9713L51.9911 80.9975L50.8656 81.0616C50.7521 81.0681 50.6384 81.0727 50.5235 81.0727C47.5615 81.0727 45.1517 78.9217 45.1517 76.2777C45.1517 73.6338 47.5615 71.4828 50.5235 71.4828C53.4855 71.4828 55.8948 73.6338 55.8948 76.2777C55.8948 76.5381 55.8695 76.8056 55.8198 77.0723L55.6348 78.0632L56.6882 78.4173C57.9876 78.8539 58.8606 79.9767 58.8606 81.212C58.8611 82.8601 57.3587 84.2012 55.5118 84.2012Z" fill="black"/>
<path d="M69.1078 90.4785C69.1078 93.2761 71.6575 95.5525 74.7921 95.5525C77.9265 95.5525 80.4765 93.2765 80.4765 90.4785C80.4765 87.681 77.9267 85.4045 74.7921 85.4045C71.6578 85.405 69.1078 87.681 69.1078 90.4785ZM77.7366 90.4785C77.7366 91.9278 76.4158 93.107 74.7919 93.107C73.1682 93.107 71.8472 91.9276 71.8472 90.4785C71.8472 89.0294 73.168 87.85 74.7919 87.85C76.4158 87.8502 77.7366 89.0294 77.7366 90.4785Z" fill="black"/>
<path d="M108.903 71.2038C104.764 71.2038 100.889 72.0798 97.5788 73.5993C97.5788 73.5993 77.8488 55.8432 77.4873 55.5572C81.5623 51.8754 83.8988 46.9181 83.9704 41.7162C86.883 41.1018 89.0121 38.7839 89.0121 36.0015C89.0121 33.217 86.8822 30.8976 83.9687 30.2836C83.8716 25.0599 81.5538 20.1598 77.4057 16.4539C73.1656 12.6691 67.5274 10.5843 61.53 10.5843C60.6618 10.5843 59.7975 10.631 58.9407 10.7191C60.3463 7.92281 59.7663 4.5185 57.198 2.22578C55.59 0.790824 53.4514 0 51.177 0C48.9025 0 46.7637 0.790825 45.1556 2.22622L39.4031 7.36125L36.3676 4.65172L34.4304 6.38093L37.4659 9.09046L31.8085 14.1403C28.4882 17.1041 28.4882 21.9262 31.8085 24.89C33.4171 26.3254 35.5552 27.1162 37.8298 27.1162C38.3815 27.1162 38.9254 27.0688 39.4554 26.9778C39.2319 28.0633 39.1107 29.1688 39.0898 30.2856C36.1775 30.9024 34.0486 33.2214 34.0486 36.002C34.0486 38.7813 36.1777 41.0992 39.0902 41.7153C39.1616 46.9179 41.4986 51.876 45.5749 55.5581C44.3646 56.5158 17.0091 81.3004 17.0091 81.3004C16.8441 81.4478 16.688 81.6021 16.5373 81.7605L13.4193 78.9773C14.3919 77.855 14.9726 76.4494 14.9726 74.9241C14.9726 71.2635 11.6364 68.2856 7.53551 68.2856H0.0991821V74.9241C0.0991821 78.5846 3.43535 81.5625 7.53624 81.5625C8.93883 81.5625 10.2518 81.2137 11.3727 80.6087L15.0889 83.9258C13.8475 86.7453 14.5694 90.0403 17.0099 92.2185C18.6657 93.6965 20.8977 94.471 23.1481 94.471C24.2176 94.471 25.2908 94.2946 26.3084 93.9371L30.9513 98.0811L32.8883 96.3522L28.7297 92.6399C28.9067 92.5054 29.0793 92.3661 29.2446 92.2183L37.4741 84.8725V101.35H44.4223V132.999H78.6398V101.35H85.5917V84.7384L87.0524 86.0423C86.9587 86.6693 86.9051 87.3056 86.9051 87.9515C86.9051 89.5183 87.19 91.07 87.7517 92.5641C88.4652 94.4626 90.4862 95.7384 92.7794 95.7384C93.3084 95.7384 93.8358 95.67 94.3471 95.5357C95.0266 95.3568 95.7365 95.2838 96.4606 95.3212C99.4379 95.4737 101.922 97.5817 102.239 100.225L102.245 100.283C102.503 102.662 104.607 104.499 107.248 104.652C107.797 104.683 108.354 104.699 108.903 104.699C121.033 104.699 130.901 97.1858 130.901 87.9512C130.901 78.7167 121.033 71.2038 108.903 71.2038ZM83.9785 32.8565C85.3367 33.3852 86.2729 34.5907 86.2729 36.0015C86.2729 37.4113 85.3365 38.6154 83.9785 39.144V32.8565ZM39.0829 39.1424C37.7249 38.6131 36.7885 37.4093 36.7885 36.0015C36.7885 34.5927 37.7249 33.3881 39.0829 32.858V39.1424ZM7.53575 79.1168C4.9458 79.1168 2.83838 77.2359 2.83838 74.9238V70.7309H7.53575C10.1257 70.7309 12.2331 72.6118 12.2331 74.9238C12.2331 77.2359 10.126 79.1168 7.53575 79.1168ZM63.381 13.1074C67.9732 13.4723 72.1693 15.238 75.4682 18.1829C77.787 20.2544 79.4557 22.7511 80.3847 25.4755C72.2983 25.8416 64.9988 20.8072 63.4684 13.5981C63.438 13.4523 63.3803 13.1289 63.381 13.1074ZM60.5754 13.0531C60.2601 22.3774 52.1274 29.9488 41.8229 30.7V30.6248C41.8229 28.9895 42.0741 27.3807 42.5657 25.8349C43.0229 25.5606 43.4536 25.2453 43.8516 24.89L56.4815 13.6161C57.8145 13.301 59.1864 13.1124 60.5754 13.0531ZM37.8298 24.6709C36.287 24.6709 34.8365 24.1348 33.7455 23.1608C31.4935 21.1506 31.4935 17.8799 33.7455 15.8695L47.0929 3.95543C48.1838 2.98162 49.6341 2.44549 51.177 2.44549C52.7198 2.44549 54.1703 2.98162 55.2611 3.95564C57.5131 5.96585 57.5131 9.2365 55.2611 11.2469L41.9142 23.161C40.823 24.1348 39.3727 24.6709 37.8298 24.6709ZM41.8224 41.4702V33.1499C51.5008 32.5077 59.6534 26.3971 62.3655 18.3267C65.5254 24.1257 72.1917 27.942 79.554 27.942C80.0331 27.942 80.5159 27.9249 81.0004 27.8923C81.1562 28.7885 81.2381 29.701 81.2381 30.6251V41.4704C81.2381 46.5348 78.7905 51.3575 74.5229 54.7012C70.933 57.5153 66.3184 59.065 61.53 59.065C56.7435 59.065 52.1308 57.5153 48.5405 54.7012L48.3679 54.5671C44.2056 51.2287 41.8224 46.4672 41.8224 41.4702ZM72.1479 59.1295C70.4758 62.9456 66.3001 65.6028 61.5309 65.6028C56.7593 65.6028 52.5837 62.943 50.9143 59.1243C54.1538 60.6777 57.795 61.5105 61.5309 61.5105C65.2662 61.5105 68.9088 60.6814 72.1479 59.1295ZM37.4734 81.4138L27.3066 90.4889C26.9013 90.8507 26.4448 91.1552 25.9464 91.3949C23.6632 92.503 20.7848 92.1296 18.9461 90.4891C17.1085 88.8486 16.6912 86.2803 17.9314 84.2429C18.2033 83.7963 18.5444 83.388 18.9461 83.0294L31.5027 71.8212L37.4734 76.9447V81.4138ZM37.4734 71.6284V73.553L33.4407 70.0922L38.4124 65.6543C37.7919 67.5745 37.4734 69.5793 37.4734 71.6284ZM47.3022 130.554C47.9206 127.992 50.5366 125.905 53.662 125.905C56.7871 125.905 59.4036 127.992 60.0217 130.554H47.3022ZM60.1607 125.837C58.4903 124.364 56.1938 123.459 53.662 123.459C51.1292 123.459 48.8317 124.365 47.1613 125.838V101.349H60.1607V125.837ZM63.0409 130.554C63.6593 127.992 66.2753 125.905 69.4006 125.905C72.5262 125.905 75.1417 127.992 75.7604 130.554H63.0409ZM75.8996 125.837C74.2292 124.364 71.9324 123.459 69.4006 123.459C66.8679 123.459 64.5708 124.364 62.9002 125.838V101.349H75.8996V125.837ZM82.8515 98.9041H40.2129V71.6286C40.2129 67.4972 41.6702 63.5683 44.4282 60.2663C45.3414 59.1717 46.39 58.1672 47.5503 57.2667C48.5558 63.4263 54.5258 68.0481 61.5305 68.0481C68.5356 68.0481 74.5075 63.4257 75.514 57.266C76.4372 57.936 78.1444 59.7037 78.1444 59.7037C81.2237 63.1162 82.8512 67.2394 82.8512 71.6284V98.9041H82.8515ZM84.5647 65.4413L89.4067 69.7634L85.5914 73.3039V71.6286C85.5909 69.5235 85.2386 67.4378 84.5647 65.4413ZM87.7947 83.2465L85.5912 81.2796V76.8317L91.3439 71.4928L95.1527 74.8925C91.6845 77.0134 89.0778 79.9159 87.7947 83.2465ZM108.903 102.253C108.412 102.253 107.914 102.239 107.424 102.211C106.131 102.137 105.1 101.227 104.973 100.046L104.963 99.9642C104.506 96.1457 100.918 93.1 96.6178 92.8796C96.4428 92.8707 96.269 92.8661 96.0958 92.8661C95.2381 92.8661 94.3892 92.975 93.5731 93.1899C93.3136 93.2584 93.0467 93.293 92.7799 93.293C91.6473 93.293 90.6934 92.7012 90.3492 91.7861C89.882 90.5434 89.6451 89.2532 89.6451 87.9512C89.6451 80.0652 98.2843 73.649 108.904 73.649C119.523 73.649 128.162 80.0649 128.162 87.9512C128.162 95.8373 119.522 102.253 108.903 102.253Z" fill="black"/>
<path d="M97.3078 81.7946C94.3967 81.7946 92.0283 83.9086 92.0283 86.5071C92.0283 89.106 94.3967 91.2201 97.3078 91.2201C100.219 91.2201 102.588 89.106 102.588 86.5071C102.588 83.9082 100.219 81.7946 97.3078 81.7946ZM97.3078 88.7746C95.9072 88.7746 94.7678 87.7574 94.7678 86.5071C94.7678 85.2569 95.9072 84.2398 97.3078 84.2398C98.7085 84.2398 99.8481 85.2571 99.8481 86.5071C99.8481 87.7574 98.7085 88.7746 97.3078 88.7746Z" fill="black"/>
<path d="M113.892 98.9029C116.423 98.9029 118.476 97.7755 118.476 96.3848C118.476 94.9941 116.423 93.8667 113.892 93.8667C111.36 93.8667 109.308 94.9941 109.308 96.3848C109.308 97.7755 111.36 98.9029 113.892 98.9029Z" fill="black"/>
<path d="M120.094 91.9227C122.625 91.9227 124.678 90.7954 124.678 89.4047C124.678 88.014 122.625 86.8866 120.094 86.8866C117.562 86.8866 115.51 88.014 115.51 89.4047C115.51 90.7954 117.562 91.9227 120.094 91.9227Z" fill="black"/>
<path d="M117.128 83.9798C119.659 83.9798 121.712 82.8524 121.712 81.4617C121.712 80.071 119.659 78.9436 117.128 78.9436C114.596 78.9436 112.544 80.071 112.544 81.4617C112.544 82.8524 114.596 83.9798 117.128 83.9798Z" fill="black"/>
<path d="M107.42 80.3694C109.952 80.3694 112.004 79.242 112.004 77.8513C112.004 76.4606 109.952 75.3333 107.42 75.3333C104.888 75.3333 102.836 76.4606 102.836 77.8513C102.836 79.242 104.888 80.3694 107.42 80.3694Z" fill="black"/>
</svg>
